<!--?xml version="1.0" encoding="utf-8"?-->
<!-- Generator: Adobe Illustrator 18.0.0, SVG Export Plug-In . SVG Version: 6.00 Build 0)  -->

<svg version="1.1" id="_x32_" xmlns="http://www.w3.org/2000/svg" xmlns:xlink="http://www.w3.org/1999/xlink" x="0px" y="0px" viewBox="0 0 512 512" style="width: 256px; height: 256px; opacity: 1;" xml:space="preserve">
<style type="text/css">
	.st0{fill:#4B4B4B;}
</style>
<g>
	<polygon class="st0" points="450.561,152.097 450.561,171.289 256.474,323.652 61.441,170.427 61.441,148.963 256.474,255.97 	" style="fill: rgb(255, 255, 255);"></polygon>
	<g>
		<path class="st0" d="M2,64c-1.1,0-2,0.9-2,2v380c0,1.1,0.9,2,2,2h508c1.1,0,2-0.9,2-2V66c0-1.1-0.9-2-2-2H2z M46.385,403.504
			c-1.1,0-2-0.9-2-2V110.496c0-1.1,0.9-2,2-2h419.23c1.1,0,2,0.9,2,2v291.007c0,1.1-0.9,2-2,2H46.385z" style="fill: rgb(255, 255, 255);"></path>
	</g>
</g>
</svg>
